<svg width="1024" height="185" viewBox="0 0 1024 185" fill="none" xmlns="http://www.w3.org/2000/svg">
<g clip-path="url(#clip0_2177_5944)">
<mask id="mask0_2177_5944" style="mask-type:luminance" maskUnits="userSpaceOnUse" x="-18" y="-46" width="1061" height="604">
<path d="M1042.19 -45.1064H-18V557.129H1042.19V-45.1064Z" fill="white"/>
</mask>
<g mask="url(#mask0_2177_5944)">
<path d="M29.1748 144.033L52.1917 116.512C66.9067 128.262 83.2743 134.452 100.547 134.452C111.642 134.452 117.583 130.628 117.583 124.201V123.767C117.583 117.577 112.704 114.146 92.4417 109.454C60.6902 102.199 36.2176 93.2491 36.2176 62.4946V62.0609C36.2176 34.303 58.1721 14.2338 93.9368 14.2338C119.275 14.2338 139.105 21.055 155.276 34.0665L134.62 63.3226C121.006 53.702 106.094 48.5763 92.8745 48.5763C82.8808 48.5763 77.9627 52.8346 77.9627 58.1969V58.6306C77.9627 65.4518 83.0776 68.4484 103.734 73.1404C138.043 80.6319 159.328 91.7114 159.328 119.666V120.1C159.328 150.618 135.249 168.755 99.0517 168.755C72.6511 168.755 47.5096 160.436 29.1748 143.994" fill="#ED1C24"/>
<path d="M344.014 144.033L367.031 116.512C381.746 128.262 398.114 134.452 415.386 134.452C426.481 134.452 432.423 130.628 432.423 124.201V123.767C432.423 117.577 427.544 114.146 407.281 109.454C375.53 102.199 351.057 93.2491 351.057 62.4946V62.0609C351.057 34.303 373.011 14.2338 408.776 14.2338C434.114 14.2338 453.944 21.055 470.115 34.0665L449.459 63.3226C435.846 53.702 420.934 48.5763 407.714 48.5763C397.72 48.5763 392.802 52.8346 392.802 58.1969V58.6306C392.802 65.4518 397.917 68.4484 418.573 73.1404C452.882 80.6319 474.168 91.7114 474.168 119.666V120.1C474.168 150.618 450.088 168.755 413.891 168.755C387.49 168.755 362.349 160.436 344.014 143.994" fill="#ED1C24"/>
<path d="M525.395 31.1092H505.486V14.9828H563.717V31.1092H543.808V81.4992H525.395V31.1092Z" fill="#009147"/>
<path d="M575.954 48.4184V48.2213C575.954 29.1377 591.299 13.6422 611.797 13.6422C632.296 13.6422 647.444 28.9406 647.444 48.0241V48.2213C647.444 67.3048 632.1 82.8004 611.601 82.8004C591.102 82.8004 575.954 67.502 575.954 48.379M628.676 48.379V48.1819C628.676 38.6007 621.752 30.2023 611.601 30.2023C601.45 30.2023 594.8 38.3641 594.8 47.9847V48.1819C594.8 57.7631 601.725 66.1614 611.758 66.1614C621.791 66.1614 628.637 57.9996 628.637 48.379" fill="#009147"/>
<path d="M665.463 52.3219V14.9828H684.152V51.9276C684.152 61.5088 688.992 66.0825 696.389 66.0825C703.785 66.0825 708.625 61.7059 708.625 52.4007V14.9828H727.314V51.8487C727.314 73.3374 715.078 82.7215 696.192 82.7215C677.306 82.7215 665.463 73.1403 665.463 52.3219Z" fill="#009147"/>
<path d="M747.498 14.9434H778.896C789.047 14.9434 796.05 17.5851 800.535 22.1588C804.431 25.944 806.398 31.1092 806.398 37.6544V37.8515C806.398 48.0241 801.008 54.7665 792.745 58.2756L808.562 81.4598H787.316L773.938 61.3116H765.872V81.4598H747.459V14.9434H747.498ZM778.03 46.8807C784.286 46.8807 787.906 43.8447 787.906 38.9949V38.7978C787.906 33.5538 784.129 30.912 777.951 30.912H765.912V46.8807H778.069H778.03Z" fill="#009147"/>
<path d="M843.854 14.9434H825.362V81.4598H843.854V14.9434Z" fill="#009147"/>
<path d="M860.222 71.6024L870.451 59.3401C876.983 64.5841 884.301 67.3047 891.973 67.3047C896.891 67.3047 899.567 65.6093 899.567 62.731V62.5338C899.567 59.7738 897.403 58.2755 888.393 56.1858C874.268 52.9526 863.369 48.9703 863.369 35.2885V35.0914C863.369 22.7501 873.127 13.7998 889.062 13.7998C900.354 13.7998 909.167 16.8358 916.367 22.6319L907.16 35.6434C901.101 31.3851 894.452 29.0982 888.589 29.0982C884.143 29.0982 881.94 30.9908 881.94 33.3565V33.5536C881.94 36.5897 884.222 37.9302 893.429 40.02C908.695 43.332 918.177 48.3 918.177 60.7201V60.9172C918.177 74.5202 907.475 82.6031 891.344 82.6031C879.579 82.6031 868.405 78.8968 860.222 71.563" fill="#009147"/>
<path d="M950.715 31.1092H930.807V14.9828H988.998V31.1092H969.089V81.4992H950.715V31.1092Z" fill="#009147"/>
<path d="M505.565 104.092H531.179C554.865 104.092 568.636 117.774 568.636 136.976V137.173C568.636 156.375 554.707 170.608 530.786 170.608H505.565V104.092ZM531.454 154.285C542.471 154.285 549.75 148.213 549.75 137.449V137.252C549.75 126.606 542.432 120.415 531.454 120.415H523.979V154.245H531.454V154.285Z" fill="#009147"/>
<path d="M588.544 137.528V137.33C588.544 118.247 603.889 102.751 624.387 102.751C644.886 102.751 660.034 118.05 660.034 137.133V137.33C660.034 156.414 644.689 171.909 624.191 171.909C603.692 171.909 588.544 156.611 588.544 137.488M641.266 137.488V137.291C641.266 127.71 634.342 119.311 624.191 119.311C614.04 119.311 607.39 127.473 607.39 137.094V137.291C607.39 146.872 614.315 155.271 624.348 155.271C634.381 155.271 641.227 147.109 641.227 137.488" fill="#009147"/>
<path d="M680.022 137.528V137.33C680.022 117.931 694.894 102.751 715 102.751C728.574 102.751 737.269 108.469 743.171 116.63L729.321 127.355C725.544 122.623 721.177 119.548 714.803 119.548C705.518 119.548 698.947 127.434 698.947 137.133V137.33C698.947 147.306 705.478 155.113 714.803 155.113C721.728 155.113 725.82 151.88 729.793 147.03L743.643 156.927C737.387 165.561 728.928 171.949 714.252 171.949C695.288 171.949 680.022 157.4 680.022 137.528Z" fill="#009147"/>
<path d="M780.469 120.258H760.561V104.092H818.752V120.258H798.843V170.608H780.469V120.258Z" fill="#009147"/>
<path d="M834.412 137.528V137.33C834.412 118.247 849.756 102.751 870.255 102.751C890.754 102.751 905.902 118.05 905.902 137.133V137.33C905.902 156.414 890.557 171.909 870.058 171.909C849.56 171.909 834.412 156.611 834.412 137.488M887.134 137.488V137.291C887.134 127.71 880.209 119.311 870.058 119.311C859.907 119.311 853.258 127.473 853.258 137.094V137.291C853.258 146.872 860.183 155.271 870.216 155.271C880.249 155.271 887.095 147.109 887.095 137.488" fill="#009147"/>
<path d="M928.21 104.092H959.607C969.758 104.092 976.762 106.734 981.247 111.307C985.142 115.093 987.11 120.258 987.11 126.803V127C987.11 137.173 981.719 143.915 973.457 147.424L989.313 170.608H968.066L954.689 150.46H946.623V170.608H928.21V104.092ZM958.742 136.029C964.998 136.029 968.617 132.993 968.617 128.143V127.946C968.617 122.702 964.84 120.061 958.663 120.061H946.623V136.029H958.781H958.742Z" fill="#009147"/>
<path d="M254.23 13.8394C208.235 13.8394 173.729 48.6156 173.729 91.5536V91.9873C173.729 134.886 207.802 169.268 253.836 169.268C299.87 169.268 334.336 134.492 334.336 91.5536V91.1198C334.336 48.2213 300.263 13.8394 254.23 13.8394Z" fill="#ED1C24"/>
</g>
<mask id="mask1_2177_5944" style="mask-type:luminance" maskUnits="userSpaceOnUse" x="-18" y="-46" width="1061" height="604">
<path d="M1042.19 -45.1064H-18V557.129H1042.19V-45.1064Z" fill="white"/>
</mask>
<g mask="url(#mask1_2177_5944)">
<path d="M227.789 65.6096C220.943 72.3914 216.694 81.7754 216.694 92.1452C216.694 102.515 220.825 111.662 227.474 118.405L232.274 113.594C226.845 108.074 223.461 100.504 223.461 92.1452C223.461 83.7863 226.963 75.94 232.55 70.4199L227.75 65.6096H227.789Z" fill="white"/>
<path d="M220.589 58.3941L215.789 53.5837C205.874 63.4409 199.736 77.0833 199.736 92.1451C199.736 107.207 205.756 120.573 215.513 130.391L220.313 125.581C211.815 116.985 206.543 105.157 206.543 92.1057C206.543 79.0548 211.933 66.9895 220.589 58.3546" fill="white"/>
<path d="M208.628 46.4076L203.828 41.5973C190.844 54.5299 182.818 72.4306 182.818 92.145C182.818 111.859 190.726 129.524 203.553 142.417L208.353 137.606C196.785 125.936 189.625 109.849 189.625 92.145C189.625 74.4415 196.903 58.0785 208.668 46.4076" fill="white"/>
<path d="M280.197 65.6096L275.396 70.4199C281.023 75.9794 284.485 83.668 284.485 92.1452C284.485 100.622 281.102 108.074 275.672 113.594L280.472 118.405C287.161 111.662 291.253 102.357 291.253 92.1452C291.253 81.9332 287.003 72.3914 280.157 65.6096" fill="white"/>
<path d="M292.197 53.5837L287.397 58.3941C296.092 67.029 301.443 78.9759 301.443 92.1451C301.443 105.314 296.171 117.025 287.672 125.62L292.472 130.431C302.191 120.613 308.25 107.089 308.25 92.1846C308.25 77.2805 302.112 63.4804 292.197 53.6232" fill="white"/>
<path d="M304.158 41.4397L299.358 46.25C311.083 57.9604 318.401 74.1262 318.401 91.9874C318.401 109.849 311.24 125.778 299.673 137.449L304.473 142.259C317.299 129.366 325.208 111.584 325.208 91.9874C325.208 72.3913 317.142 54.3723 304.197 41.4397" fill="white"/>
<path d="M254.661 78.4635C247.185 78.4635 241.166 84.5355 241.166 91.9876C241.166 99.4396 247.225 105.512 254.661 105.512C262.097 105.512 268.156 99.4396 268.156 91.9876C268.156 84.5355 262.097 78.4635 254.661 78.4635Z" fill="white"/>
<path d="M243.526 93.1309C243.526 86.2703 248.799 80.7108 255.291 80.7108C258.202 80.7108 260.878 81.8543 262.924 83.7074C260.76 81.0657 257.573 79.3702 253.992 79.3702C247.5 79.3702 242.228 84.9297 242.228 91.7903C242.228 95.5755 243.841 98.9269 246.359 101.214C244.589 99.0452 243.526 96.2458 243.526 93.1309Z" fill="#ED1C24"/>
</g>
</g>
<defs>
<clipPath id="clip0_2177_5944">
<rect width="1060.19" height="185" fill="white" transform="translate(-18)"/>
</clipPath>
</defs>
</svg>
